<?xml version="1.0" encoding="UTF-8" ?>
<!DOCTYPE svg PUBLIC "-//W3C//DTD SVG 1.1//EN" "http://www.w3.org/Graphics/SVG/1.1/DTD/svg11.dtd">
<svg width="2048pt" height="508pt" viewBox="0 0 2048 508" version="1.1" xmlns="http://www.w3.org/2000/svg">
<g id="#ffffffff">
<path fill="#ffffff" opacity="1.00" d=" M 1961.34 55.18 C 1966.55 55.83 1971.72 56.78 1976.91 57.61 C 1959.14 158.38 1941.18 259.11 1923.30 359.87 C 1919.00 358.90 1914.70 357.90 1910.37 357.17 C 1925.48 265.96 1941.06 174.82 1956.36 83.64 C 1958.10 74.16 1959.33 64.60 1961.34 55.18 Z" />
<path fill="#ffffff" opacity="1.00" d=" M 1958.46 322.99 C 1973.26 235.49 1987.91 147.96 2002.80 60.46 C 2008.03 61.40 2013.28 62.28 2018.47 63.54 C 2002.50 153.17 1986.65 242.81 1970.71 332.45 C 1968.87 343.46 1966.60 354.41 1965.02 365.47 C 1960.70 364.61 1956.42 363.59 1952.06 363.00 C 1953.53 349.57 1956.52 336.35 1958.46 322.99 Z" />
</g>
<g id="#7ba3a5ff">
<path fill="#7ba3a5" opacity="1.00" d=" M 1879.41 387.01 C 1900.74 263.20 1922.05 139.38 1943.49 15.59 C 1977.97 21.56 2012.50 27.18 2047.00 33.05 C 2046.98 43.86 2043.94 54.35 2042.34 64.98 C 2022.23 177.70 2002.12 290.43 1982.04 403.15 L 1981.79 403.69 C 1972.43 403.30 1963.32 400.72 1954.06 399.48 C 1929.17 395.32 1904.31 391.05 1879.41 387.01 M 1961.34 55.18 C 1959.33 64.60 1958.10 74.16 1956.36 83.64 C 1941.06 174.82 1925.48 265.96 1910.37 357.17 C 1914.70 357.90 1919.00 358.90 1923.30 359.87 C 1941.18 259.11 1959.14 158.38 1976.91 57.61 C 1971.72 56.78 1966.55 55.83 1961.34 55.18 M 1958.46 322.99 C 1956.52 336.35 1953.53 349.57 1952.06 363.00 C 1956.42 363.59 1960.70 364.61 1965.02 365.47 C 1966.60 354.41 1968.87 343.46 1970.71 332.45 C 1986.65 242.81 2002.50 153.17 2018.47 63.54 C 2013.28 62.28 2008.03 61.40 2002.80 60.46 C 1987.91 147.96 1973.26 235.49 1958.46 322.99 Z" />
<path fill="#7ba3a5" opacity="1.00" d=" M 321.59 59.54 C 349.34 59.61 377.09 59.64 404.85 59.51 C 405.48 107.36 404.82 155.23 405.15 203.08 C 421.78 185.25 443.70 171.58 468.05 167.83 C 485.87 165.27 504.66 166.40 521.31 173.66 C 534.60 179.34 545.60 189.70 552.96 202.06 C 562.55 217.91 566.51 236.63 566.77 255.00 C 566.77 297.09 566.85 339.19 566.73 381.29 C 576.07 383.49 585.55 385.11 594.93 387.11 C 597.92 387.77 601.24 389.82 601.59 393.14 C 602.15 398.73 601.56 404.36 601.98 409.96 C 602.20 412.40 602.01 414.84 601.55 417.25 C 575.52 416.88 549.47 417.19 523.44 417.09 C 523.51 366.38 523.44 315.67 523.47 264.96 C 523.63 252.79 522.81 240.31 518.29 228.87 C 514.07 218.28 505.66 209.13 494.87 205.11 C 480.41 199.83 464.27 200.07 449.64 204.59 C 432.60 209.87 418.17 221.26 406.19 234.19 C 404.81 235.40 405.22 237.39 405.07 239.02 C 405.14 286.52 405.04 334.02 405.13 381.52 C 414.13 383.40 423.20 384.97 432.20 386.89 C 435.80 387.48 439.76 389.99 439.84 394.02 C 440.26 401.61 440.21 409.24 440.18 416.85 C 402.31 417.50 364.42 416.75 326.55 417.23 C 326.63 409.46 326.34 401.68 326.63 393.91 C 326.81 390.06 330.41 387.55 333.95 387.02 C 343.14 385.25 352.32 383.40 361.47 381.39 C 361.58 304.27 361.48 227.14 361.51 150.02 C 361.43 131.64 361.68 113.25 361.39 94.87 C 350.26 93.35 339.14 91.55 328.14 89.28 C 324.65 88.72 321.76 85.66 321.71 82.09 C 321.56 74.58 321.74 67.06 321.59 59.54 Z" />
<path fill="#7ba3a5" opacity="1.00" d=" M 1478.32 81.95 C 1478.19 74.47 1478.33 66.99 1478.30 59.52 C 1504.37 59.61 1530.45 59.68 1556.52 59.48 C 1556.67 166.78 1556.61 274.08 1556.55 381.39 C 1565.33 383.32 1574.18 384.98 1583.01 386.72 C 1586.54 387.31 1591.03 389.05 1591.55 393.12 C 1591.98 401.01 1591.49 408.93 1591.81 416.83 C 1562.23 417.43 1532.63 416.92 1503.05 417.09 C 1494.83 416.89 1486.57 417.47 1478.40 416.84 C 1478.12 409.24 1478.24 401.60 1478.37 394.00 C 1478.29 389.46 1483.12 387.13 1487.03 386.71 C 1495.78 385.00 1504.58 383.42 1513.25 381.32 C 1513.11 323.90 1513.23 266.47 1513.19 209.04 C 1513.28 171.13 1513.02 133.23 1513.33 95.33 C 1503.37 92.67 1493.02 91.70 1483.13 88.81 C 1480.10 88.00 1478.28 84.97 1478.32 81.95 Z" />
<path fill="#7ba3a5" opacity="1.00" d=" M 103.68 82.78 C 128.93 70.64 157.11 65.41 185.00 65.20 C 201.85 64.78 218.65 67.21 235.00 71.10 C 255.99 75.59 276.29 82.73 296.48 89.88 C 296.88 117.09 296.58 144.31 296.64 171.53 C 288.42 171.46 280.21 171.52 272.00 171.50 C 267.28 171.76 263.27 167.59 262.83 163.04 C 261.25 153.14 260.88 143.08 260.04 133.10 C 259.50 128.35 259.84 123.49 258.47 118.87 C 251.60 117.40 244.99 114.95 238.14 113.45 C 213.67 107.62 188.09 104.14 163.05 108.14 C 146.68 110.34 130.75 116.01 116.75 124.80 C 101.74 134.42 89.02 147.48 79.53 162.55 C 65.80 184.77 59.59 211.04 59.19 237.00 C 58.36 260.08 61.21 283.52 69.66 305.13 C 81.58 335.67 105.96 361.94 137.07 373.26 C 160.01 381.48 184.99 381.72 208.92 378.54 C 221.96 377.15 234.17 371.81 245.57 365.57 C 254.18 360.82 262.17 355.02 269.54 348.52 C 272.55 345.58 277.20 344.30 281.19 345.87 C 285.09 348.14 287.75 351.93 290.81 355.15 C 294.78 359.80 299.33 363.92 303.10 368.74 C 287.12 387.02 266.83 401.63 244.00 410.02 C 227.05 416.32 209.12 419.83 191.08 420.69 C 159.94 422.74 127.80 418.45 99.66 404.43 C 67.88 388.79 42.55 361.34 27.78 329.31 C 13.40 298.12 9.10 263.05 10.96 229.00 C 12.85 196.21 22.30 163.35 41.32 136.31 C 57.13 113.58 78.68 94.77 103.68 82.78 Z" />
<path fill="#7ba3a5" opacity="1.00" d=" M 1734.31 69.24 C 1737.66 66.05 1742.46 65.08 1746.96 65.19 C 1761.62 65.29 1776.28 65.05 1790.94 65.32 C 1773.40 84.36 1756.15 103.67 1738.64 122.73 C 1734.26 127.91 1729.32 134.02 1721.98 134.41 C 1712.34 134.56 1702.69 134.39 1693.06 134.50 C 1702.94 117.67 1713.50 101.24 1723.62 84.55 C 1726.99 79.33 1729.74 73.57 1734.31 69.24 Z" />
<path fill="#7ba3a5" opacity="1.00" d=" M 1697.20 166.17 C 1707.78 165.24 1718.41 166.11 1729.00 166.59 C 1741.03 167.58 1753.43 169.11 1764.26 174.87 C 1778.91 181.99 1790.81 194.29 1797.99 208.86 C 1803.13 219.20 1806.07 230.53 1807.43 241.96 C 1808.81 252.27 1808.26 262.67 1808.36 273.03 C 1808.31 309.22 1808.46 345.41 1808.28 381.60 C 1817.21 383.42 1826.17 385.12 1835.10 386.97 C 1838.36 387.40 1839.66 391.03 1839.65 393.91 C 1839.81 401.43 1839.63 408.94 1839.69 416.46 C 1823.15 416.30 1806.61 416.39 1790.07 416.40 C 1785.53 416.46 1780.48 416.17 1776.98 412.95 C 1774.61 410.92 1774.01 407.74 1773.30 404.89 C 1771.72 397.85 1770.09 390.81 1769.04 383.67 C 1756.04 394.43 1742.92 405.43 1727.56 412.71 C 1718.63 416.93 1708.99 420.18 1699.02 420.29 C 1686.91 420.41 1674.73 420.08 1662.77 418.07 C 1645.29 414.97 1629.73 403.67 1620.73 388.48 C 1615.80 380.28 1613.54 370.57 1613.96 361.05 C 1614.31 351.24 1615.27 341.21 1619.09 332.07 C 1624.78 318.16 1636.99 308.18 1649.78 300.99 C 1666.37 291.73 1684.94 286.67 1703.52 283.23 C 1724.03 279.81 1744.84 278.25 1765.64 278.58 C 1765.33 265.46 1766.55 252.15 1763.77 239.22 C 1762.37 232.10 1760.04 225.04 1755.97 218.98 C 1750.86 211.27 1742.82 205.58 1733.89 203.23 C 1723.53 200.09 1712.53 200.58 1701.94 202.02 C 1690.67 203.71 1679.57 207.56 1670.30 214.28 C 1664.30 218.49 1658.17 222.59 1651.56 225.77 C 1648.01 227.51 1643.55 226.95 1640.51 224.46 C 1634.73 219.78 1630.61 213.43 1626.92 207.07 C 1626.04 205.91 1626.04 204.28 1627.34 203.42 C 1637.72 193.53 1649.15 184.64 1661.71 177.68 C 1672.67 171.69 1684.68 167.24 1697.20 166.17 M 1687.19 316.13 C 1678.60 319.55 1669.98 323.80 1663.84 330.93 C 1657.49 337.51 1655.17 347.00 1655.72 355.93 C 1656.24 364.61 1658.62 373.75 1665.09 379.96 C 1673.20 387.84 1685.10 390.07 1696.04 389.67 C 1722.72 389.99 1747.98 376.26 1765.45 356.67 C 1765.89 339.83 1765.56 322.92 1765.60 306.06 C 1739.24 306.36 1712.32 307.34 1687.19 316.13 Z" />
<path fill="#7ba3a5" opacity="1.00" d=" M 699.35 172.69 C 717.66 166.54 737.42 165.29 756.52 167.71 C 777.04 170.59 797.05 179.49 811.64 194.41 C 822.82 205.14 830.29 219.16 835.26 233.71 C 839.35 246.73 841.62 260.38 841.45 274.05 C 841.42 279.58 842.01 285.43 839.69 290.62 C 838.11 293.15 834.93 294.45 832.02 294.40 C 777.11 294.32 722.21 294.46 667.30 294.32 C 667.43 313.18 670.87 332.42 679.80 349.20 C 685.53 359.64 693.46 369.05 703.72 375.26 C 719.51 385.12 738.88 387.40 757.09 385.57 C 766.31 385.07 775.11 381.98 783.68 378.77 C 793.13 375.12 801.87 369.95 810.49 364.69 C 814.93 361.75 821.69 361.23 825.46 365.54 C 829.95 370.96 834.00 376.74 838.51 382.16 C 828.53 394.82 814.35 403.44 799.60 409.50 C 778.52 417.80 755.62 421.33 733.02 420.05 C 711.73 418.96 690.52 412.41 673.02 400.08 C 661.27 391.62 650.99 380.91 643.74 368.32 C 632.51 349.82 626.78 328.41 624.89 306.96 C 623.41 287.91 624.11 268.50 629.21 249.99 C 634.67 230.06 644.65 211.07 659.56 196.60 C 670.90 185.89 684.56 177.64 699.35 172.69 M 690.46 217.45 C 677.32 230.57 671.47 248.93 668.50 266.83 C 672.31 267.46 676.17 267.31 680.02 267.28 C 720.86 267.27 761.70 267.28 802.54 267.27 C 802.61 246.99 796.30 225.13 780.08 211.88 C 766.43 200.08 747.34 197.13 729.91 199.19 C 715.21 200.56 700.62 206.50 690.46 217.45 Z" />
<path fill="#7ba3a5" opacity="1.00" d=" M 913.96 178.03 C 927.84 170.79 943.44 167.38 959.00 166.66 C 978.07 166.24 997.59 168.72 1014.92 177.12 C 1017.86 178.46 1020.55 180.95 1024.01 180.66 C 1045.42 180.60 1066.83 180.61 1088.23 180.64 C 1088.20 186.76 1088.65 192.91 1088.08 199.02 C 1087.19 204.16 1081.76 206.56 1077.11 207.17 C 1068.17 208.43 1059.20 209.53 1050.26 210.77 C 1055.71 221.66 1058.55 233.82 1058.34 246.00 C 1058.55 262.74 1053.61 279.84 1042.95 292.93 C 1033.84 304.96 1020.68 313.41 1006.67 318.65 C 985.91 326.20 963.09 326.89 941.47 323.12 C 938.19 322.84 934.51 320.12 931.56 322.55 C 927.06 325.64 922.89 329.43 920.16 334.21 C 917.22 339.47 916.92 346.44 920.44 351.51 C 923.72 356.00 929.07 358.22 934.17 359.96 C 943.17 362.68 952.62 363.49 961.96 364.30 C 986.72 365.27 1011.69 365.81 1036.02 371.04 C 1051.48 374.65 1067.46 381.76 1076.10 395.76 C 1083.13 406.37 1083.44 419.64 1082.40 431.89 C 1080.32 447.30 1072.27 461.38 1061.54 472.44 C 1043.04 490.79 1017.66 500.73 992.17 504.31 C 982.19 506.02 972.04 505.65 961.97 505.69 C 948.15 505.82 934.36 504.01 920.94 500.81 C 906.02 496.74 891.08 491.05 879.29 480.75 C 866.23 470.04 858.13 453.02 860.02 436.01 C 860.70 423.77 866.80 412.06 876.18 404.23 C 883.72 397.55 892.89 393.13 902.08 389.21 C 894.23 385.12 886.67 379.48 882.93 371.20 C 879.06 361.69 878.42 350.55 882.59 341.03 C 887.69 329.23 897.52 319.97 908.50 313.61 C 910.46 312.95 909.86 311.33 908.22 310.78 C 889.73 299.97 876.31 280.71 873.22 259.44 C 871.55 245.86 872.00 231.71 876.80 218.77 C 883.28 201.04 896.98 186.20 913.96 178.03 M 952.50 198.88 C 942.78 200.32 933.28 204.30 926.15 211.19 C 916.47 220.32 912.21 233.91 912.36 246.97 C 912.11 257.24 915.36 267.44 920.90 276.03 C 926.62 284.52 935.62 290.35 945.21 293.63 C 956.83 297.15 969.35 297.31 981.25 295.09 C 995.03 292.48 1008.01 283.99 1014.26 271.19 C 1020.27 258.49 1021.13 243.46 1017.05 230.06 C 1013.77 218.48 1005.23 208.60 994.38 203.45 C 981.38 197.49 966.48 196.86 952.50 198.88 M 904.66 414.67 C 895.35 426.36 895.51 444.90 906.11 455.75 C 916.43 466.02 931.05 470.34 945.10 472.49 C 961.69 474.71 978.62 474.56 995.15 471.90 C 1008.88 469.11 1023.09 464.36 1033.04 454.02 C 1040.88 446.06 1044.92 433.96 1041.83 423.02 C 1039.89 415.53 1033.04 410.68 1026.24 407.88 C 1017.99 404.74 1009.26 403.00 1000.49 402.19 C 976.70 399.17 952.55 400.29 928.84 396.51 C 919.66 400.84 911.09 406.74 904.66 414.67 Z" />
<path fill="#7ba3a5" opacity="1.00" d=" M 1209.45 167.78 C 1230.00 165.25 1251.24 166.43 1270.99 172.95 C 1290.09 179.34 1307.59 191.02 1319.95 207.02 C 1329.29 218.70 1335.65 232.51 1340.04 246.75 C 1347.24 271.40 1347.87 297.64 1344.08 322.93 C 1340.70 342.74 1333.55 362.24 1321.30 378.34 C 1314.00 388.28 1304.68 396.64 1294.23 403.14 C 1275.17 415.18 1252.38 420.34 1230.01 420.30 C 1211.12 420.55 1191.96 417.40 1174.82 409.24 C 1156.33 400.70 1140.40 386.54 1130.05 368.98 C 1118.62 350.35 1112.83 328.66 1111.47 306.95 C 1111.06 290.96 1110.67 274.74 1114.34 259.06 C 1119.10 235.41 1130.11 212.48 1147.94 195.94 C 1164.68 180.17 1186.77 170.72 1209.45 167.78 M 1221.61 200.99 C 1206.05 202.15 1190.26 207.81 1179.44 219.42 C 1171.39 227.02 1166.21 237.07 1162.60 247.41 C 1158.10 261.11 1156.24 275.57 1156.10 289.95 C 1155.81 310.43 1157.81 331.58 1166.86 350.24 C 1175.29 368.05 1192.48 381.46 1211.95 384.84 C 1231.55 388.32 1253.25 386.52 1270.03 374.98 C 1284.94 364.50 1293.51 347.22 1297.59 329.86 C 1302.47 307.82 1302.45 284.82 1298.68 262.61 C 1295.13 244.77 1287.76 226.57 1273.36 214.74 C 1259.09 202.99 1239.62 199.56 1221.61 200.99 Z" />
<path fill="#7ba3a5" opacity="1.00" d=" M 1877.24 405.30 C 1880.45 406.75 1883.93 407.33 1887.43 407.76 C 1918.08 413.17 1948.77 418.32 1979.41 423.83 C 1966.19 441.71 1952.35 459.12 1938.93 476.85 C 1932.15 476.54 1925.59 474.63 1918.90 473.69 C 1912.04 472.70 1905.26 471.26 1898.40 470.33 C 1890.95 450.19 1884.80 429.57 1877.56 409.35 C 1877.10 408.35 1876.61 407.37 1876.10 406.43 C 1876.38 406.14 1876.95 405.58 1877.24 405.30 Z" />
<path fill="#7ba3a5" opacity="1.00" d=" M 1902.25 477.41 C 1911.89 479.03 1921.62 480.10 1931.29 481.53 C 1927.77 487.74 1922.96 493.07 1918.98 498.97 C 1916.83 501.85 1915.14 505.17 1912.16 507.31 C 1909.00 497.29 1905.06 487.53 1902.25 477.41 Z" />
</g>
</svg>
